<svg xmlns="http://www.w3.org/2000/svg" viewBox="0 0 400 300" preserveAspectRatio="xMidYMid slice">
  <defs>
    <linearGradient id="bg2" x1="0" y1="0" x2="0" y2="1">
      <stop offset="0" stop-color="#ff3621"/>
      <stop offset="1" stop-color="#c41e10"/>
    </linearGradient>
  </defs>
  <rect width="400" height="300" fill="url(#bg2)"/>

  <!-- Databricks icon (centro) -->
  <g transform="translate(160, 60) scale(5)"><path d="M.95 14.184L12 20.403l9.919-5.55v2.21L12 22.662l-10.484-5.96-.565.308v.77L12 24l11.05-6.218v-4.317l-.515-.309L12 19.118l-9.867-5.653v-2.21L12 16.805l11.05-6.218V6.32l-.515-.308L12 11.974 2.647 6.681 12 1.388l7.76 4.368.668-.411v-.566L12 0 .95 6.27v.72L12 13.207l9.919-5.55v2.26L12 15.52 1.516 9.56l-.565.308Z" fill="white"/></g>

  <text x="200" y="225" text-anchor="middle" font-family="-apple-system, sans-serif"
        font-size="22" font-weight="700" fill="white" letter-spacing="2">DATABRICKS</text>
  <text x="200" y="255" text-anchor="middle" font-family="-apple-system, sans-serif"
        font-size="13" fill="white" opacity="0.85" letter-spacing="2">DELTA LAKE · MEDALLION</text>
</svg>